<svg width="128" height="128" viewBox="0 0 128 128" fill="none" xmlns="http://www.w3.org/2000/svg">
<path d="M24.8697 116.469L8.54973 13.4695C8.26114 11.6481 9.66867 10 11.5128 10H116.504C118.343 10 119.749 11.6382 119.47 13.4551L103.661 116.455C103.437 117.919 102.177 119 100.696 119H27.8327C26.3571 119 25.1006 117.927 24.8697 116.469Z" stroke="#F21A1A" stroke-width="6"/>
<path d="M85 64C85 60.4657 84.1269 57.1352 82.5846 54.2127C80.6773 50.5986 77.7468 47.6083 74.1786 45.6273C71.1635 43.9533 67.6931 43 64 43C52.402 43 43 52.402 43 64C43 75.598 52.402 85 64 85V94C47.4315 94 34 80.5685 34 64C34 47.4315 47.4315 34 64 34C80.5685 34 94 47.4315 94 64C94 80.5685 80.5685 94 64 94V85C75.598 85 85 75.598 85 64Z" fill="#F21A1A"/>
<path d="M86.4092 50.0693L82.5846 54.2127L50.4092 89.0693L41.5908 80.9307L74.1786 45.6273L77.5908 41.9307L86.4092 50.0693Z" fill="#F21A1A"/>
</svg>
